<svg width="204" height="87" viewBox="0 0 204 87" fill="none" xmlns="http://www.w3.org/2000/svg">
<path d="M59.784 62.916C60.096 62.916 60.336 63.06 60.504 63.348C60.696 63.636 60.792 64.032 60.792 64.536C60.792 65.496 60.564 66.24 60.108 66.768C59.22 67.848 57.96 68.844 56.328 69.756C54.72 70.668 52.992 71.124 51.144 71.124C48.624 71.124 46.668 70.44 45.276 69.072C43.884 67.704 43.188 65.832 43.188 63.456C43.188 61.8 43.536 60.264 44.232 58.848C44.928 57.408 45.888 56.268 47.112 55.428C48.36 54.588 49.764 54.168 51.324 54.168C52.716 54.168 53.832 54.588 54.672 55.428C55.512 56.244 55.932 57.36 55.932 58.776C55.932 60.432 55.332 61.86 54.132 63.06C52.956 64.236 50.952 65.172 48.12 65.868C48.72 66.972 49.86 67.524 51.54 67.524C52.62 67.524 53.844 67.152 55.212 66.408C56.604 65.64 57.804 64.644 58.812 63.42C59.1 63.084 59.424 62.916 59.784 62.916ZM50.712 57.696C49.824 57.696 49.068 58.212 48.444 59.244C47.844 60.276 47.544 61.524 47.544 62.988V63.06C48.96 62.724 50.076 62.22 50.892 61.548C51.708 60.876 52.116 60.096 52.116 59.208C52.116 58.752 51.984 58.392 51.72 58.128C51.48 57.84 51.144 57.696 50.712 57.696ZM60.4168 71.124C59.5048 71.124 58.8568 70.644 58.4728 69.684C58.1128 68.724 57.9328 67.188 57.9328 65.076C57.9328 61.956 58.3768 58.992 59.2648 56.184C59.4808 55.488 59.8288 54.984 60.3088 54.672C60.8128 54.336 61.5088 54.168 62.3968 54.168C62.8768 54.168 63.2128 54.228 63.4048 54.348C63.5968 54.468 63.6928 54.696 63.6928 55.032C63.6928 55.416 63.5128 56.28 63.1528 57.624C62.9128 58.584 62.7208 59.424 62.5768 60.144C62.4328 60.864 62.3128 61.752 62.2168 62.808C63.0088 60.744 63.8968 59.064 64.8808 57.768C65.8648 56.472 66.8248 55.548 67.7608 54.996C68.7208 54.444 69.5968 54.168 70.3888 54.168C71.9488 54.168 72.7288 54.948 72.7288 56.508C72.7288 57.444 72.4648 59.136 71.9368 61.584C71.4808 63.672 71.2528 65.052 71.2528 65.724C71.2528 66.684 71.6008 67.164 72.2968 67.164C72.7768 67.164 73.3408 66.876 73.9888 66.3C74.6608 65.7 75.5488 64.74 76.6528 63.42C76.9408 63.084 77.2648 62.916 77.6248 62.916C77.9368 62.916 78.1768 63.06 78.3448 63.348C78.5368 63.636 78.6328 64.032 78.6328 64.536C78.6328 65.496 78.4048 66.24 77.9488 66.768C76.9168 68.04 75.8008 69.084 74.6008 69.9C73.4248 70.716 72.0808 71.124 70.5688 71.124C69.3448 71.124 68.4208 70.776 67.7968 70.08C67.1728 69.36 66.8608 68.328 66.8608 66.984C66.8608 66.312 67.0288 65.112 67.3648 63.384C67.6768 61.872 67.8328 60.828 67.8328 60.252C67.8328 59.868 67.7008 59.676 67.4368 59.676C67.1248 59.676 66.6808 60.084 66.1048 60.9C65.5528 61.692 64.9768 62.748 64.3768 64.068C63.8008 65.388 63.3328 66.78 62.9728 68.244C62.7088 69.372 62.3968 70.14 62.0368 70.548C61.7008 70.932 61.1608 71.124 60.4168 71.124ZM91.7762 62.916C92.0882 62.916 92.3282 63.06 92.4962 63.348C92.6882 63.636 92.7842 64.032 92.7842 64.536C92.7842 65.496 92.5562 66.24 92.1002 66.768C91.0682 68.04 89.9402 69.084 88.7162 69.9C87.4922 70.716 86.0882 71.124 84.5042 71.124C79.6082 71.124 77.1602 67.68 77.1602 60.792C77.1602 59.736 77.1962 58.668 77.2682 57.588H75.8642C75.1442 57.588 74.6522 57.456 74.3882 57.192C74.1482 56.928 74.0282 56.508 74.0282 55.932C74.0282 54.588 74.5682 53.916 75.6482 53.916H77.7002C78.1082 51.276 78.7322 48.864 79.5722 46.68C80.4122 44.496 81.4202 42.756 82.5962 41.46C83.7962 40.164 85.0802 39.516 86.4482 39.516C87.4562 39.516 88.2482 39.96 88.8242 40.848C89.4002 41.736 89.6882 42.852 89.6882 44.196C89.6882 47.916 88.1282 51.156 85.0082 53.916H89.0402C89.4242 53.916 89.7002 54 89.8682 54.168C90.0362 54.336 90.1202 54.648 90.1202 55.104C90.1202 56.76 88.7642 57.588 86.0522 57.588H81.6602C81.6122 58.788 81.5882 59.724 81.5882 60.396C81.5882 62.892 81.8762 64.644 82.4522 65.652C83.0522 66.66 83.9882 67.164 85.2602 67.164C86.2922 67.164 87.2042 66.852 87.9962 66.228C88.7882 65.604 89.7242 64.668 90.8042 63.42C91.0922 63.084 91.4162 62.916 91.7762 62.916ZM85.4762 42.972C85.1162 42.972 84.7082 43.428 84.2522 44.34C83.8202 45.228 83.4002 46.476 82.9922 48.084C82.6082 49.668 82.2842 51.432 82.0202 53.376C83.4362 52.152 84.4922 50.784 85.1882 49.272C85.9082 47.736 86.2682 46.344 86.2682 45.096C86.2682 43.68 86.0042 42.972 85.4762 42.972ZM108.213 59.892C108.525 59.892 108.765 60.048 108.933 60.36C109.101 60.672 109.185 61.068 109.185 61.548C109.185 62.7 108.837 63.384 108.141 63.6C106.701 64.104 105.117 64.392 103.389 64.464C102.933 66.48 102.033 68.1 100.689 69.324C99.345 70.524 97.821 71.124 96.117 71.124C94.677 71.124 93.441 70.776 92.409 70.08C91.401 69.384 90.633 68.46 90.105 67.308C89.577 66.156 89.313 64.908 89.313 63.564C89.313 61.74 89.661 60.12 90.357 58.704C91.053 57.264 92.013 56.148 93.237 55.356C94.461 54.54 95.817 54.132 97.305 54.132C99.129 54.132 100.593 54.768 101.697 56.04C102.825 57.288 103.485 58.836 103.677 60.684C104.805 60.612 106.149 60.372 107.709 59.964C107.901 59.916 108.069 59.892 108.213 59.892ZM96.405 67.308C97.173 67.308 97.833 66.996 98.385 66.372C98.961 65.748 99.345 64.848 99.537 63.672C98.793 63.168 98.217 62.508 97.809 61.692C97.425 60.876 97.233 60.012 97.233 59.1C97.233 58.716 97.269 58.332 97.341 57.948H97.161C96.201 57.948 95.397 58.416 94.749 59.352C94.125 60.264 93.813 61.56 93.813 63.24C93.813 64.56 94.065 65.568 94.569 66.264C95.097 66.96 95.709 67.308 96.405 67.308ZM120.639 59.1C121.167 59.1 121.611 59.292 121.971 59.676C122.355 60.036 122.547 60.492 122.547 61.044C122.547 61.356 122.475 61.692 122.331 62.052C121.947 62.94 121.407 63.684 120.711 64.284C120.015 64.884 119.247 65.184 118.407 65.184C117.735 65.184 117.159 64.944 116.679 64.464C116.223 63.984 115.995 63.336 115.995 62.52C115.995 62.064 116.019 61.572 116.067 61.044C116.115 60.66 116.139 60.396 116.139 60.252C116.139 60.06 116.091 59.916 115.995 59.82C115.923 59.724 115.827 59.676 115.707 59.676C115.371 59.676 114.915 60.084 114.339 60.9C113.763 61.692 113.187 62.748 112.611 64.068C112.035 65.388 111.567 66.78 111.207 68.244C110.943 69.396 110.643 70.164 110.307 70.548C109.971 70.932 109.419 71.124 108.651 71.124C107.739 71.124 107.091 70.644 106.707 69.684C106.347 68.724 106.167 67.188 106.167 65.076C106.167 61.956 106.611 58.992 107.499 56.184C107.715 55.488 108.063 54.984 108.543 54.672C109.047 54.336 109.743 54.168 110.631 54.168C111.111 54.168 111.447 54.228 111.639 54.348C111.831 54.468 111.927 54.696 111.927 55.032C111.927 55.416 111.747 56.28 111.387 57.624C111.147 58.584 110.955 59.424 110.811 60.144C110.667 60.864 110.547 61.752 110.451 62.808C111.243 60.744 112.131 59.064 113.115 57.768C114.099 56.472 115.059 55.548 115.995 54.996C116.931 54.444 117.783 54.168 118.551 54.168C119.247 54.168 119.775 54.372 120.135 54.78C120.519 55.164 120.711 55.74 120.711 56.508C120.711 56.964 120.579 57.828 120.315 59.1H120.639ZM129.701 71.916C128.453 71.916 127.493 71.628 126.821 71.052C126.173 70.476 125.849 69.828 125.849 69.108C125.849 68.484 126.077 67.944 126.533 67.488C126.989 67.032 127.661 66.804 128.549 66.804C128.861 66.804 129.221 66.84 129.629 66.912C130.061 66.96 130.385 66.996 130.601 67.02C130.577 66.396 130.433 65.808 130.169 65.256C129.929 64.704 129.617 64.176 129.233 63.672C128.849 63.144 128.489 62.688 128.153 62.304C127.409 63.72 126.665 64.896 125.921 65.832C125.201 66.768 124.409 67.656 123.545 68.496C123.113 68.928 122.657 69.144 122.177 69.144C121.793 69.144 121.481 69.012 121.241 68.748C121.001 68.46 120.881 68.112 120.881 67.704C120.881 67.224 121.049 66.78 121.385 66.372L121.853 65.796C123.173 64.164 124.169 62.82 124.841 61.764C125.249 61.068 125.729 60.144 126.281 58.992C126.833 57.816 127.373 56.604 127.901 55.356C128.357 54.3 129.305 53.772 130.745 53.772C131.417 53.772 131.885 53.832 132.149 53.952C132.413 54.072 132.545 54.264 132.545 54.528C132.545 54.672 132.497 54.9 132.401 55.212C132.305 55.524 132.173 55.836 132.005 56.148C131.573 57.012 131.357 57.744 131.357 58.344C131.357 58.704 131.477 59.1 131.717 59.532C131.981 59.964 132.377 60.504 132.905 61.152C133.673 62.16 134.249 63.024 134.633 63.744C135.041 64.44 135.245 65.208 135.245 66.048C135.245 66.288 135.221 66.624 135.173 67.056C136.349 66.6 137.729 65.388 139.313 63.42C139.601 63.084 139.925 62.916 140.285 62.916C140.597 62.916 140.837 63.06 141.005 63.348C141.197 63.636 141.293 64.032 141.293 64.536C141.293 65.448 141.065 66.192 140.609 66.768C139.409 68.256 138.257 69.276 137.153 69.828C136.073 70.356 134.729 70.644 133.121 70.692C132.161 71.508 131.021 71.916 129.701 71.916ZM159.177 62.916C159.489 62.916 159.729 63.06 159.897 63.348C160.089 63.636 160.185 64.032 160.185 64.536C160.185 65.496 159.957 66.24 159.501 66.768C158.421 68.088 157.329 69.144 156.225 69.936C155.121 70.728 153.813 71.124 152.301 71.124C150.453 71.124 148.965 70.596 147.837 69.54C146.709 68.484 146.145 67.08 146.145 65.328C146.145 64.392 146.625 63.72 147.585 63.312C148.641 62.856 149.397 62.376 149.853 61.872C150.309 61.344 150.537 60.708 150.537 59.964C150.537 59.532 150.441 59.208 150.249 58.992C150.081 58.776 149.865 58.668 149.601 58.668C148.953 58.668 148.233 59.136 147.441 60.072C146.673 61.008 145.953 62.22 145.281 63.708C144.609 65.172 144.081 66.684 143.697 68.244C143.433 69.372 143.121 70.14 142.761 70.548C142.425 70.932 141.885 71.124 141.141 71.124C140.397 71.124 139.845 70.86 139.485 70.332C139.149 69.78 138.921 68.94 138.801 67.812C138.681 66.684 138.621 65.028 138.621 62.844C138.621 59.148 138.993 55.296 139.737 51.288C140.505 47.28 141.621 43.92 143.085 41.208C144.573 38.472 146.349 37.104 148.413 37.104C149.517 37.104 150.405 37.584 151.077 38.544C151.773 39.48 152.121 40.704 152.121 42.216C152.121 44.64 151.413 47.16 149.997 49.776C148.581 52.368 146.277 55.404 143.085 58.884C143.013 60.132 142.977 61.416 142.977 62.736C144.129 59.736 145.449 57.564 146.937 56.22C148.425 54.852 149.817 54.168 151.113 54.168C152.313 54.168 153.273 54.576 153.993 55.392C154.737 56.208 155.109 57.216 155.109 58.416C155.109 59.736 154.773 60.948 154.101 62.052C153.429 63.156 152.277 64.14 150.645 65.004C150.741 65.652 151.029 66.18 151.509 66.588C152.013 66.972 152.613 67.164 153.309 67.164C154.053 67.164 154.773 66.876 155.469 66.3C156.165 65.724 157.077 64.764 158.205 63.42C158.493 63.084 158.817 62.916 159.177 62.916ZM147.657 40.668C147.225 40.668 146.745 41.292 146.217 42.54C145.689 43.764 145.173 45.432 144.669 47.544C144.189 49.632 143.793 51.912 143.481 54.384C144.969 52.632 146.193 50.724 147.153 48.66C148.137 46.596 148.629 44.724 148.629 43.044C148.629 42.276 148.545 41.688 148.377 41.28C148.209 40.872 147.969 40.668 147.657 40.668ZM175.643 59.892C175.955 59.892 176.195 60.048 176.363 60.36C176.531 60.672 176.615 61.068 176.615 61.548C176.615 62.7 176.267 63.384 175.571 63.6C174.131 64.104 172.547 64.392 170.819 64.464C170.363 66.48 169.463 68.1 168.119 69.324C166.775 70.524 165.251 71.124 163.547 71.124C162.107 71.124 160.871 70.776 159.839 70.08C158.831 69.384 158.063 68.46 157.535 67.308C157.007 66.156 156.743 64.908 156.743 63.564C156.743 61.74 157.091 60.12 157.787 58.704C158.483 57.264 159.443 56.148 160.667 55.356C161.891 54.54 163.247 54.132 164.735 54.132C166.559 54.132 168.023 54.768 169.127 56.04C170.255 57.288 170.915 58.836 171.107 60.684C172.235 60.612 173.579 60.372 175.139 59.964C175.331 59.916 175.499 59.892 175.643 59.892ZM163.835 67.308C164.603 67.308 165.263 66.996 165.815 66.372C166.391 65.748 166.775 64.848 166.967 63.672C166.223 63.168 165.647 62.508 165.239 61.692C164.855 60.876 164.663 60.012 164.663 59.1C164.663 58.716 164.699 58.332 164.771 57.948H164.591C163.631 57.948 162.827 58.416 162.179 59.352C161.555 60.264 161.243 61.56 161.243 63.24C161.243 64.56 161.495 65.568 161.999 66.264C162.527 66.96 163.139 67.308 163.835 67.308ZM191.885 59.892C192.197 59.892 192.437 60.048 192.605 60.36C192.773 60.672 192.857 61.068 192.857 61.548C192.857 62.7 192.509 63.384 191.813 63.6C190.373 64.104 188.789 64.392 187.061 64.464C186.605 66.48 185.705 68.1 184.361 69.324C183.017 70.524 181.493 71.124 179.789 71.124C178.349 71.124 177.113 70.776 176.081 70.08C175.073 69.384 174.305 68.46 173.777 67.308C173.249 66.156 172.985 64.908 172.985 63.564C172.985 61.74 173.333 60.12 174.029 58.704C174.725 57.264 175.685 56.148 176.909 55.356C178.133 54.54 179.489 54.132 180.977 54.132C182.801 54.132 184.265 54.768 185.369 56.04C186.497 57.288 187.157 58.836 187.349 60.684C188.477 60.612 189.821 60.372 191.381 59.964C191.573 59.916 191.741 59.892 191.885 59.892ZM180.077 67.308C180.845 67.308 181.505 66.996 182.057 66.372C182.633 65.748 183.017 64.848 183.209 63.672C182.465 63.168 181.889 62.508 181.481 61.692C181.097 60.876 180.905 60.012 180.905 59.1C180.905 58.716 180.941 58.332 181.013 57.948H180.833C179.873 57.948 179.069 58.416 178.421 59.352C177.797 60.264 177.485 61.56 177.485 63.24C177.485 64.56 177.737 65.568 178.241 66.264C178.769 66.96 179.381 67.308 180.077 67.308ZM200.171 65.868C200.435 65.628 200.699 65.508 200.963 65.508C201.251 65.508 201.479 65.676 201.647 66.012C201.839 66.324 201.935 66.708 201.935 67.164C201.935 68.172 201.575 68.976 200.855 69.576C199.607 70.608 198.191 71.124 196.607 71.124C194.327 71.124 192.659 70.176 191.603 68.28C190.547 66.36 190.019 63.864 190.019 60.792C190.019 57.864 190.391 54.528 191.135 50.784C191.903 47.04 193.019 43.824 194.483 41.136C195.971 38.448 197.735 37.104 199.775 37.104C200.927 37.104 201.827 37.644 202.475 38.724C203.147 39.78 203.483 41.304 203.483 43.296C203.483 46.152 202.691 49.464 201.107 53.232C199.547 57 197.411 60.72 194.699 64.392C194.867 65.376 195.167 66.084 195.599 66.516C196.031 66.948 196.619 67.164 197.363 67.164C197.771 67.164 198.227 67.044 198.731 66.804C199.259 66.564 199.739 66.252 200.171 65.868ZM198.983 40.668C198.431 40.668 197.807 41.664 197.111 43.656C196.415 45.648 195.803 48.12 195.275 51.072C194.747 54.024 194.459 56.856 194.411 59.568C196.115 56.76 197.471 53.952 198.479 51.144C199.487 48.312 199.991 45.732 199.991 43.404C199.991 41.58 199.655 40.668 198.983 40.668Z" fill="black"/>
<path d="M12 68.9441C12.7477 56.461 13.9411 28.9641 17.3059 28.9441C20.9383 28.9225 24.9977 61.0653 26.3997 60.3519C27.8017 59.6386 30.0203 39.9901 34.0214 39.9134C33.7731 48.1457 36.3158 68.7577 45 65.4399" stroke="black" stroke-width="4" stroke-linecap="round" stroke-linejoin="round"/>
<circle cx="17" cy="17.9438" r="7" fill="#019AFF"/>
<circle cx="34.5" cy="31.444" r="4.5" fill="#019AFF"/>
<g clip-path="url(#clip0)">
<path d="M17.4135 7.66446L18.7069 10.1197C18.8956 10.4769 18.8211 10.9213 18.4833 11.4529C18.1455 11.9845 17.6023 12.5306 16.8538 13.0911C16.1053 13.6516 15.2454 14.1519 14.2742 14.5919C13.3029 15.032 12.3599 15.3486 11.445 15.5418C10.5302 15.735 9.76158 15.7832 9.13931 15.6866C8.51703 15.5901 8.13389 15.353 7.98987 14.9756L6.99784 12.3838L12.4583 11.6516C12.598 11.6333 12.7404 11.5912 12.8855 11.5254C13.0307 11.4597 13.1562 11.3804 13.2621 11.2874L17.4135 7.66446ZM20.6794 3.06645C20.7348 3.1889 20.7108 3.29924 20.6073 3.39747L12.5028 10.4574C12.4828 10.4728 12.4561 10.4881 12.4226 10.5033C12.3892 10.5184 12.36 10.5284 12.3353 10.5332L6.13134 11.3617C5.97329 11.6514 5.90954 12.038 5.94009 12.5214C5.97064 13.0048 6.09092 13.523 6.30092 14.0758C6.73936 14.1082 7.04658 14.3186 7.22257 14.7073C7.38892 15.0746 7.35603 15.4328 7.12389 15.7818L9.17534 19.0195C9.22026 19.089 9.22807 19.1657 9.19877 19.2495C9.17505 19.3309 9.12133 19.3905 9.0376 19.4284L7.43004 20.1568C7.34631 20.1947 7.26607 20.1958 7.18932 20.16C7.10698 20.1267 7.05452 20.0703 7.03193 19.9907L5.95171 16.3129C5.53636 16.2573 5.2455 16.0458 5.07916 15.6785C4.90317 15.2898 4.95077 14.9122 5.22198 14.5455C4.78434 13.4156 4.66006 12.4133 4.84915 11.5384L1.68494 11.9712C1.54285 11.9842 1.44409 11.9295 1.38864 11.8071C1.33319 11.6847 1.35722 11.5743 1.46073 11.4761L9.56526 4.4162C9.58517 4.40076 9.61188 4.38545 9.64537 4.37028C9.67886 4.3551 9.70797 4.34512 9.73271 4.34033L20.3831 2.90236C20.5252 2.88931 20.6239 2.94401 20.6794 3.06645Z" fill="black"/>
</g>
<path d="M182.188 73.944C183.189 73.944 184.018 74.7639 183.812 75.7433C183.395 77.7267 182.294 79.5694 180.632 81.015C178.475 82.8904 175.55 83.944 172.5 83.944C169.45 83.944 166.525 82.8904 164.368 81.015C162.706 79.5694 161.605 77.7267 161.188 75.7433C160.982 74.7639 161.811 73.944 162.812 73.944C163.813 73.944 164.6 74.7729 164.897 75.7288C165.253 76.8753 165.949 77.932 166.931 78.7863C168.408 80.0706 170.411 80.7921 172.5 80.7921C174.589 80.7921 176.592 80.0706 178.069 78.7863C179.051 77.932 179.747 76.8753 180.103 75.7288C180.4 74.7729 181.187 73.944 182.188 73.944Z" fill="#019AFF"/>
<defs>
<clipPath id="clip0">
<rect width="21.1786" height="13.4651" fill="white" transform="matrix(0.910862 -0.412712 0.412516 0.91095 0 8.7406)"/>
</clipPath>
</defs>
</svg>
